<mxfile host="app.diagrams.net" modified="2024-05-19T07:16:54.456Z" agent="Mozilla/5.0 (Windows NT 10.0; Win64; x64) AppleWebKit/537.36 (KHTML, like Gecko) Chrome/125.0.0.0 Safari/537.36" etag="kC86T_epdt42SqwEROj2" version="24.4.4" type="device">
  <diagram name="Page-1" id="EAb5sakuiqaA4_lgvpah">
    <mxGraphModel dx="1615" dy="868" grid="1" gridSize="10" guides="1" tooltips="1" connect="1" arrows="1" fold="1" page="1" pageScale="1" pageWidth="850" pageHeight="1100" math="0" shadow="0">
      <root>
        <mxCell id="0" />
        <mxCell id="1" parent="0" />
        <mxCell id="4lZJxfbPMfUEMikzSrb2-1" value="ExceptionTester" style="swimlane;fontSize=14;startSize=23;" vertex="1" parent="1">
          <mxGeometry x="290" y="150" width="260" height="150" as="geometry" />
        </mxCell>
        <mxCell id="4lZJxfbPMfUEMikzSrb2-2" value="&lt;div&gt;+ ExceptionTester()&lt;br&gt;&lt;/div&gt;&lt;div&gt;+ main(String[] args): void&lt;/div&gt;&lt;div&gt;+ throwExceptionA(): void&lt;/div&gt;&lt;div&gt;+ throwExceptionB(): void&lt;/div&gt;&lt;div&gt;+ throwNullPointerException(): void&lt;/div&gt;&lt;div&gt;+ throwIOException(): void&lt;/div&gt;" style="text;html=1;align=left;verticalAlign=middle;resizable=0;points=[];autosize=1;strokeColor=none;fillColor=none;fontSize=15;" vertex="1" parent="4lZJxfbPMfUEMikzSrb2-1">
          <mxGeometry y="25" width="260" height="120" as="geometry" />
        </mxCell>
        <mxCell id="4lZJxfbPMfUEMikzSrb2-5" value="ExceptionA" style="swimlane;fontSize=14;startSize=23;" vertex="1" parent="1">
          <mxGeometry x="215" y="380" width="420" height="110" as="geometry" />
        </mxCell>
        <mxCell id="4lZJxfbPMfUEMikzSrb2-7" value="+ &amp;lt;&amp;lt;constructor&amp;gt;&amp;gt; ExceptionA(&lt;span style=&quot;background-color: initial;&quot;&gt;)&lt;/span&gt;&lt;div style=&quot;font-size: 14px;&quot;&gt;&lt;div style=&quot;font-size: 14px;&quot;&gt;&lt;span style=&quot;background-color: initial; font-size: 14px;&quot;&gt;+&amp;nbsp;&lt;/span&gt;&lt;span style=&quot;background-color: initial;&quot;&gt;&amp;lt;&amp;lt;constructor&amp;gt;&amp;gt; ExceptionA(str: String&lt;/span&gt;&lt;span style=&quot;background-color: initial;&quot;&gt;)&lt;/span&gt;&lt;/div&gt;&lt;div style=&quot;font-size: 14px;&quot;&gt;+&amp;nbsp;&lt;span style=&quot;background-color: initial;&quot;&gt;&amp;lt;&amp;lt;constructor&amp;gt;&amp;gt; ExceptionA(str: String, throwable: Throwable&lt;/span&gt;&lt;span style=&quot;background-color: initial;&quot;&gt;)&lt;/span&gt;&lt;/div&gt;&lt;div style=&quot;font-size: 14px;&quot;&gt;&lt;span style=&quot;background-color: initial;&quot;&gt;+&amp;nbsp;&lt;/span&gt;&lt;span style=&quot;background-color: initial;&quot;&gt;&amp;lt;&amp;lt;constructor&amp;gt;&amp;gt; ExceptionA(throwable: Throwable&lt;/span&gt;&lt;span style=&quot;background-color: initial;&quot;&gt;)&lt;/span&gt;&lt;/div&gt;&lt;/div&gt;" style="text;html=1;align=left;verticalAlign=middle;resizable=0;points=[];autosize=1;strokeColor=none;fillColor=none;fontSize=14;" vertex="1" parent="4lZJxfbPMfUEMikzSrb2-5">
          <mxGeometry y="30" width="420" height="80" as="geometry" />
        </mxCell>
        <mxCell id="4lZJxfbPMfUEMikzSrb2-32" value="ExceptionB" style="swimlane;fontSize=14;startSize=23;" vertex="1" parent="1">
          <mxGeometry x="215" y="680" width="420" height="110" as="geometry" />
        </mxCell>
        <mxCell id="4lZJxfbPMfUEMikzSrb2-33" value="+ &amp;lt;&amp;lt;constructor&amp;gt;&amp;gt; ExceptionB(&lt;span style=&quot;background-color: initial;&quot;&gt;)&lt;/span&gt;&lt;div style=&quot;font-size: 14px;&quot;&gt;&lt;div style=&quot;font-size: 14px;&quot;&gt;&lt;span style=&quot;background-color: initial; font-size: 14px;&quot;&gt;+&amp;nbsp;&lt;/span&gt;&lt;span style=&quot;background-color: initial;&quot;&gt;&amp;lt;&amp;lt;constructor&amp;gt;&amp;gt; ExceptionB(str: String&lt;/span&gt;&lt;span style=&quot;background-color: initial;&quot;&gt;)&lt;/span&gt;&lt;/div&gt;&lt;div style=&quot;font-size: 14px;&quot;&gt;+&amp;nbsp;&lt;span style=&quot;background-color: initial;&quot;&gt;&amp;lt;&amp;lt;constructor&amp;gt;&amp;gt; ExceptionB(str: String, throwable: Throwable&lt;/span&gt;&lt;span style=&quot;background-color: initial;&quot;&gt;)&lt;/span&gt;&lt;/div&gt;&lt;div style=&quot;font-size: 14px;&quot;&gt;&lt;span style=&quot;background-color: initial;&quot;&gt;+&amp;nbsp;&lt;/span&gt;&lt;span style=&quot;background-color: initial;&quot;&gt;&amp;lt;&amp;lt;constructor&amp;gt;&amp;gt; ExceptionB(throwable: Throwable&lt;/span&gt;&lt;span style=&quot;background-color: initial;&quot;&gt;)&lt;/span&gt;&lt;/div&gt;&lt;/div&gt;" style="text;html=1;align=left;verticalAlign=middle;resizable=0;points=[];autosize=1;strokeColor=none;fillColor=none;fontSize=14;" vertex="1" parent="4lZJxfbPMfUEMikzSrb2-32">
          <mxGeometry y="30" width="420" height="80" as="geometry" />
        </mxCell>
        <mxCell id="4lZJxfbPMfUEMikzSrb2-34" style="edgeStyle=orthogonalEdgeStyle;rounded=0;orthogonalLoop=1;jettySize=auto;html=1;entryX=0.5;entryY=0;entryDx=0;entryDy=0;" edge="1" parent="1" source="4lZJxfbPMfUEMikzSrb2-7" target="4lZJxfbPMfUEMikzSrb2-32">
          <mxGeometry relative="1" as="geometry" />
        </mxCell>
      </root>
    </mxGraphModel>
  </diagram>
</mxfile>
